<mxfile host="app.diagrams.net" agent="Mozilla/5.0 (Windows NT 10.0; Win64; x64) AppleWebKit/537.36 (KHTML, like Gecko) Chrome/131.0.0.0 Safari/537.36 Edg/131.0.0.0" version="24.9.0">
  <diagram name="第 1 页" id="5zyvvPP96-_8WPoNdMik">
    <mxGraphModel dx="1042" dy="565" grid="1" gridSize="10" guides="1" tooltips="1" connect="1" arrows="1" fold="1" page="1" pageScale="1" pageWidth="827" pageHeight="1169" math="0" shadow="0">
      <root>
        <mxCell id="0" />
        <mxCell id="1" parent="0" />
        <mxCell id="WYhb9oasLaSKBzwH5yIw-1" value="" style="rounded=0;whiteSpace=wrap;html=1;" vertex="1" parent="1">
          <mxGeometry x="210" y="30" width="610" height="480" as="geometry" />
        </mxCell>
        <object label="用户" id="WYhb9oasLaSKBzwH5yIw-2">
          <mxCell style="shape=umlActor;verticalLabelPosition=bottom;verticalAlign=top;html=1;" vertex="1" parent="1">
            <mxGeometry x="90" y="190" width="60" height="90" as="geometry" />
          </mxCell>
        </object>
        <mxCell id="WYhb9oasLaSKBzwH5yIw-3" value="分布式追踪监控" style="ellipse;whiteSpace=wrap;html=1;" vertex="1" parent="1">
          <mxGeometry x="280" y="200" width="140" height="70" as="geometry" />
        </mxCell>
        <mxCell id="WYhb9oasLaSKBzwH5yIw-4" value="" style="endArrow=classic;html=1;rounded=0;entryX=0;entryY=0.5;entryDx=0;entryDy=0;" edge="1" parent="1" target="WYhb9oasLaSKBzwH5yIw-3" source="WYhb9oasLaSKBzwH5yIw-2">
          <mxGeometry width="50" height="50" relative="1" as="geometry">
            <mxPoint x="240" y="236" as="sourcePoint" />
            <mxPoint x="400" y="233.75" as="targetPoint" />
          </mxGeometry>
        </mxCell>
        <mxCell id="WYhb9oasLaSKBzwH5yIw-5" value="集中式管理配置" style="ellipse;whiteSpace=wrap;html=1;" vertex="1" parent="1">
          <mxGeometry x="640" y="30" width="120" height="80" as="geometry" />
        </mxCell>
        <mxCell id="WYhb9oasLaSKBzwH5yIw-7" value="采集链路调用信息以及节点异常" style="ellipse;whiteSpace=wrap;html=1;" vertex="1" parent="1">
          <mxGeometry x="640" y="260" width="120" height="80" as="geometry" />
        </mxCell>
        <mxCell id="WYhb9oasLaSKBzwH5yIw-8" value="告警" style="ellipse;whiteSpace=wrap;html=1;" vertex="1" parent="1">
          <mxGeometry x="640" y="370" width="120" height="80" as="geometry" />
        </mxCell>
        <mxCell id="WYhb9oasLaSKBzwH5yIw-9" value="" style="endArrow=classic;html=1;rounded=0;entryX=0;entryY=0.5;entryDx=0;entryDy=0;dashed=1;" edge="1" parent="1" target="WYhb9oasLaSKBzwH5yIw-5">
          <mxGeometry width="50" height="50" relative="1" as="geometry">
            <mxPoint x="450" y="240" as="sourcePoint" />
            <mxPoint x="500" y="190" as="targetPoint" />
          </mxGeometry>
        </mxCell>
        <mxCell id="WYhb9oasLaSKBzwH5yIw-10" value="" style="endArrow=classic;html=1;rounded=0;dashed=1;entryX=0;entryY=0.5;entryDx=0;entryDy=0;" edge="1" parent="1" target="WYhb9oasLaSKBzwH5yIw-19">
          <mxGeometry width="50" height="50" relative="1" as="geometry">
            <mxPoint x="450" y="235.38" as="sourcePoint" />
            <mxPoint x="210" y="124.61076923076905" as="targetPoint" />
          </mxGeometry>
        </mxCell>
        <mxCell id="WYhb9oasLaSKBzwH5yIw-11" value="" style="endArrow=classic;html=1;rounded=0;entryX=0;entryY=0.5;entryDx=0;entryDy=0;dashed=1;" edge="1" parent="1" target="WYhb9oasLaSKBzwH5yIw-7">
          <mxGeometry width="50" height="50" relative="1" as="geometry">
            <mxPoint x="450" y="240" as="sourcePoint" />
            <mxPoint x="500" y="190" as="targetPoint" />
          </mxGeometry>
        </mxCell>
        <mxCell id="WYhb9oasLaSKBzwH5yIw-12" value="" style="endArrow=classic;html=1;rounded=0;entryX=0;entryY=0.5;entryDx=0;entryDy=0;dashed=1;" edge="1" parent="1" target="WYhb9oasLaSKBzwH5yIw-8">
          <mxGeometry width="50" height="50" relative="1" as="geometry">
            <mxPoint x="450" y="240" as="sourcePoint" />
            <mxPoint x="500" y="190" as="targetPoint" />
          </mxGeometry>
        </mxCell>
        <mxCell id="WYhb9oasLaSKBzwH5yIw-13" value="&lt;span style=&quot;font-size: 18px;&quot;&gt;&lt;b&gt;分布式追踪监控&lt;/b&gt;&lt;/span&gt;" style="text;html=1;align=center;verticalAlign=middle;whiteSpace=wrap;rounded=0;" vertex="1" parent="1">
          <mxGeometry x="472.5" y="30" width="145" height="50" as="geometry" />
        </mxCell>
        <mxCell id="WYhb9oasLaSKBzwH5yIw-14" value="include" style="text;html=1;align=center;verticalAlign=middle;whiteSpace=wrap;rounded=0;" vertex="1" parent="1">
          <mxGeometry x="500" y="150" width="60" height="30" as="geometry" />
        </mxCell>
        <mxCell id="WYhb9oasLaSKBzwH5yIw-15" value="include" style="text;html=1;align=center;verticalAlign=middle;whiteSpace=wrap;rounded=0;" vertex="1" parent="1">
          <mxGeometry x="540" y="190" width="60" height="30" as="geometry" />
        </mxCell>
        <mxCell id="WYhb9oasLaSKBzwH5yIw-16" value="include" style="text;html=1;align=center;verticalAlign=middle;whiteSpace=wrap;rounded=0;" vertex="1" parent="1">
          <mxGeometry x="540" y="250" width="60" height="30" as="geometry" />
        </mxCell>
        <mxCell id="WYhb9oasLaSKBzwH5yIw-17" value="include" style="text;html=1;align=center;verticalAlign=middle;whiteSpace=wrap;rounded=0;" vertex="1" parent="1">
          <mxGeometry x="540" y="320" width="60" height="30" as="geometry" />
        </mxCell>
        <mxCell id="WYhb9oasLaSKBzwH5yIw-19" value="采样率动态变更" style="ellipse;whiteSpace=wrap;html=1;" vertex="1" parent="1">
          <mxGeometry x="640" y="140" width="120" height="80" as="geometry" />
        </mxCell>
      </root>
    </mxGraphModel>
  </diagram>
</mxfile>
